<?xml version="1.0" standalone="no"?>
<!DOCTYPE svg PUBLIC "-//W3C//DTD SVG 20010904//EN"
 "http://www.w3.org/TR/2001/REC-SVG-20010904/DTD/svg10.dtd">
<svg version="1.0" xmlns="http://www.w3.org/2000/svg"
 width="300.000000pt" height="222.000000pt" viewBox="0 0 300.000000 222.000000"
 preserveAspectRatio="xMidYMid meet">
<metadata>
Created by potrace 1.10, written by Peter Selinger 2001-2011
</metadata>
<g transform="translate(0.000000,222.000000) scale(0.100000,-0.100000)"
fill="#000000" stroke="none">
<path d="M325 2054 c-73 -27 -145 -122 -145 -192 0 -80 21 -129 82 -189 l58
-58 1130 0 c707 0 1130 -4 1130 -10 0 -5 5 -4 12 3 7 7 28 12 47 12 29 0 48
11 99 56 58 53 62 59 62 100 0 24 3 44 8 44 4 0 6 18 4 40 -2 22 -7 40 -11 40
-4 0 -13 16 -20 35 -16 44 -64 93 -116 116 -38 18 -96 19 -1170 18 -964 0
-1136 -3 -1170 -15z m2312 -35 c65 -24 113 -95 113 -168 0 -76 -35 -130 -105
-162 -38 -18 -92 -19 -1160 -19 -1069 0 -1122 1 -1161 19 -135 61 -137 251 -4
322 33 18 83 19 1162 19 772 0 1136 -3 1155 -11z"/>
<path d="M315 1326 c-61 -29 -109 -78 -125 -130 -14 -44 -8 -158 9 -164 6 -2
9 -8 5 -13 -5 -9 29 -45 81 -84 34 -25 115 -59 115 -47 0 7 350 6 382 -2 9 -2
19 1 21 7 2 7 64 7 200 1 118 -5 198 -5 200 0 2 5 82 5 200 0 118 -5 198 -5
200 0 2 5 82 5 200 0 118 -5 198 -5 200 0 2 5 82 5 200 0 108 -5 197 -7 197
-4 0 3 45 5 100 5 55 0 100 -4 100 -9 0 -5 6 -4 13 1 6 6 29 16 51 23 40 13
144 106 126 112 -6 2 -8 11 -5 21 4 9 11 14 17 11 5 -4 8 22 7 65 -1 39 -6 68
-11 65 -7 -5 -13 17 -9 39 2 13 -78 84 -117 103 -35 18 -88 19 -1172 21
l-1135 3 -50 -24z m2330 -35 c70 -32 105 -86 105 -162 0 -73 -48 -144 -113
-168 -19 -8 -383 -11 -1155 -11 -1079 0 -1129 1 -1162 19 -133 71 -131 261 4
322 39 18 92 19 1161 19 1068 0 1122 -1 1160 -19z"/>
<path d="M360 620 c-55 -7 -75 -18 -122 -67 -30 -31 -39 -50 -48 -102 -11 -63
-6 -141 10 -141 5 0 11 -8 15 -19 10 -31 65 -82 111 -103 43 -18 77 -19 1168
-19 l1124 0 56 24 c31 13 54 26 51 29 -3 3 6 13 19 22 14 9 30 34 37 56 7 21
15 37 19 35 11 -7 19 78 9 90 -5 5 -9 22 -9 37 0 21 -14 44 -47 79 -85 91 35
83 -1228 84 -616 0 -1140 -2 -1165 -5z m2273 -44 c48 -18 74 -41 98 -88 42
-82 12 -188 -67 -234 l-41 -24 -1137 0 c-1238 0 -1161 -4 -1218 57 -89 94 -45
255 80 293 15 5 526 8 1137 9 912 0 1117 -2 1148 -13z"/>
</g>
</svg>
